# xmcd
# 
# Track frame offsets:
#     150
#     2953
#     34824
#     56356
#     73660
#     92990
#     110964
#     125446
#     142145
#     165548
#     190891
#     208258
#     227643
#     249724
#     276079
#     297168
#     316013
#     333182
# 
# Disc length: 4700
# 
# Revision: 3
# Processed by: cddbd v1.5.2PL0 Copyright (c) Steve Scherf et al.
# Submitted via: fre:ac v1.0.27
# 
DISCID=13125a12
DTITLE=Tha Dogg Pound - PLAYLIST Vintage Grooves G-Funk
DYEAR=2003
DGENRE=Rap
TTITLE0=Intro
TTITLE1=Let Me Ride (Extended Funk Remix)
TTITLE2=Gin N Juice (Laid Back Remix)
TTITLE3=What's Love Got Do With It (Warren G Remix)
TTITLE4=Regulate (G-Funk Remix)
TTITLE5=U Better Recognize (Dr. Dre G-Funk Remix)
TTITLE6=So Many Ways (Bad Boys Remix)
TTITLE7=This DJ (Warren G Remix)
TTITLE8=Do You See (G-Funk Remix)
TTITLE9=Doggy Dogg World (Perfecto Remix)
TTITLE10=Just Dippin' (Battlecat G Mix)
TTITLE11=It Might Sound Crazy (Daz Dillinger Remix)
TTITLE12=Slip N Slide (Tha Dogg Pound Remix)
TTITLE13=Snoop's Upside Ya Head (Soopafly Remix)
TTITLE14=Beware Of My Crew (DJ Pooh Rmx)
TTITLE15=I Don't Hang (G Mix)
TTITLE16=Regulate (Jammin' Mix)
TTITLE17=Who Ride Wit Us (Ride The Remix)
EXTD=YEAR: 2003
EXTT0=
EXTT1=
EXTT2=
EXTT3=
EXTT4=
EXTT5=
EXTT6=
EXTT7=
EXTT8=
EXTT9=
EXTT10=
EXTT11=
EXTT12=
EXTT13=
EXTT14=
EXTT15=
EXTT16=
EXTT17=
PLAYORDER=
